<?xml version="1.0" encoding="UTF-8"?>
<svg version="1.1" xmlns="http://www.w3.org/2000/svg" width="1024" height="400" viewBox="60 400 900 200">
<path d="M0 0 C1.63984529 0.00031732 3.27971127 0.01165397 4.91943359 0.03173828 C6.21365738 0.03598312 6.21365738 0.03598312 7.5340271 0.04031372 C10.29544829 0.05152746 13.05654759 0.07663394 15.81787109 0.10205078 C17.68765808 0.11207905 19.55745015 0.12120517 21.42724609 0.12939453 C26.01591218 0.15147066 30.60433702 0.18600844 35.19287109 0.22705078 C37.88111947 6.6321485 39.11472974 12.75711912 40.11083984 19.61376953 C40.45285237 21.85528436 40.79581731 24.09665404 41.13964844 26.33789062 C41.3130072 27.48159119 41.48636597 28.62529175 41.66497803 29.8036499 C42.49539174 35.18890538 43.39959822 40.56120738 44.30615234 45.93408203 C44.66766522 48.08884985 45.02907346 50.24363522 45.39038086 52.3984375 C45.57255157 53.48316345 45.75472229 54.5678894 45.94241333 55.68548584 C50.16516278 80.84434642 54.23491187 106.02527234 58.19287109 131.22705078 C62.99411547 103.86441314 62.99411547 103.86441314 67.25537109 76.41455078 C69.31348276 62.0750277 71.68960315 47.79268616 74.13119507 33.51419067 C74.88587723 29.0875566 75.6015109 24.65668567 76.29052734 20.21923828 C76.61176199 18.242614 76.93334351 16.26604604 77.25537109 14.28955078 C77.38105469 13.42096436 77.50673828 12.55237793 77.63623047 11.6574707 C77.76964844 10.86703369 77.90306641 10.07659668 78.04052734 9.26220703 C78.14373291 8.59584229 78.24693848 7.92947754 78.35327148 7.24291992 C79.71654366 3.96971889 81.37965074 2.38246489 84.19287109 0.22705078 C87.17241896 -0.47888934 90.05593601 -0.45131476 93.10693359 -0.40185547 C93.95838959 -0.40426743 94.80984558 -0.40667938 95.68710327 -0.40916443 C97.4807401 -0.40818772 99.27440772 -0.39483594 101.06787109 -0.36987305 C103.81630337 -0.33546884 106.56153596 -0.34924465 109.31005859 -0.36865234 C111.05486396 -0.36175624 112.79966104 -0.35208598 114.54443359 -0.33935547 C115.36634186 -0.34431534 116.18825012 -0.34927521 117.0350647 -0.35438538 C122.66516732 -0.23775138 122.66516732 -0.23775138 125.1550293 1.95532227 C126.26159763 4.37748606 126.92800883 6.52710311 127.44677734 9.14111328 C127.65641113 10.18340088 127.86604492 11.22568848 128.08203125 12.29956055 C128.3042334 13.47188232 128.52643555 14.6442041 128.75537109 15.85205078 C129.00077637 17.10880615 129.24618164 18.36556152 129.49902344 19.66040039 C132.8057114 36.8128953 135.66705133 54.05336164 138.58959961 71.27441406 C140.84266164 84.5347 143.1918286 97.76546862 145.75990295 110.96841431 C146.74237821 116.09362849 147.65652264 121.23150298 148.57958984 126.36767578 C148.89765625 129.11286747 148.89765625 129.11286747 150.19287109 130.22705078 C150.40266602 128.7506311 150.40266602 128.7506311 150.61669922 127.24438477 C152.3079072 115.34940828 154.00880764 103.45582942 155.71453857 91.56292725 C156.0375304 89.31039204 156.36032005 87.05782784 156.68292236 84.80523682 C163.92969582 34.20908227 163.92969582 34.20908227 167.06787109 14.97705078 C167.35416382 13.18605957 167.35416382 13.18605957 167.64624023 11.35888672 C167.82405029 10.29959961 168.00186035 9.2403125 168.18505859 8.14892578 C168.33313965 7.25786133 168.4812207 6.36679687 168.63378906 5.44873047 C169.19287109 3.22705078 169.19287109 3.22705078 171.19287109 0.22705078 C174.137276 -0.07696921 176.86753233 -0.19285779 179.81396484 -0.17138672 C181.0975161 -0.17569199 181.0975161 -0.17569199 182.40699768 -0.18008423 C184.21852275 -0.18212759 186.03006975 -0.17657873 187.84155273 -0.1640625 C190.61606223 -0.14803189 193.38911063 -0.16389139 196.16357422 -0.18310547 C197.92204098 -0.1811227 199.68050683 -0.17727832 201.43896484 -0.17138672 C202.27028427 -0.17745941 203.1016037 -0.1835321 203.95811462 -0.18978882 C209.75495921 -0.1189765 209.75495921 -0.1189765 211.92401123 1.59495544 C214.35952644 4.7276836 213.10919683 8.57262481 212.7265625 12.3125 C211.72052115 19.69167062 210.31611065 26.98388783 208.88037109 34.28955078 C208.5575259 35.96066288 208.23526522 37.63188799 207.91357422 39.30322266 C206.23260514 48.01224643 204.51627576 56.71435317 202.75 65.40649414 C200.67794034 75.6617821 198.77277448 85.9499213 196.83618164 96.23144531 C195.08492281 105.52677311 193.30913116 114.81673742 191.50537109 124.10205078 C190.04182241 131.65133898 188.66502741 139.20792702 187.38037109 146.78955078 C185.58724173 157.22126018 183.68844209 167.63404222 181.72207642 178.03439331 C181.37115154 179.902829 181.0253694 181.77223839 180.68490601 183.64260864 C180.20164427 186.29081202 179.69948652 188.93479171 179.19287109 191.57861328 C178.98039482 192.77563622 178.98039482 192.77563622 178.7636261 193.99684143 C177.83727406 198.70159865 176.66776404 201.71398152 173.19287109 205.22705078 C170.93133898 206.35781684 169.6686346 206.36478465 167.15795898 206.38818359 C166.32692154 206.39779114 165.49588409 206.40739868 164.6396637 206.41729736 C163.2912162 206.42367218 163.2912162 206.42367218 161.91552734 206.43017578 C160.99323837 206.43587585 160.0709494 206.44157593 159.12071228 206.44744873 C157.16797027 206.45690326 155.21521227 206.46343451 153.26245117 206.46728516 C150.27087713 206.47700042 147.27998721 206.50802333 144.28857422 206.53955078 C142.39339602 206.54607977 140.49821289 206.55133065 138.60302734 206.55517578 C137.2576162 206.57369598 137.2576162 206.57369598 135.88502502 206.59259033 C134.63374062 206.58808868 134.63374062 206.58808868 133.35717773 206.58349609 C132.62374649 206.58714172 131.89031525 206.59078735 131.13465881 206.59454346 C128.62724537 206.12000339 127.76118528 205.20166139 126.19287109 203.22705078 C122.67881494 193.05000647 121.62713192 181.60285094 119.83312988 171.0149231 C117.36198045 156.44547447 114.84010952 141.90213443 111.85229492 127.42871094 C109.9022628 117.95187246 108.2698897 108.42643998 106.65234375 98.88818359 C105.8650812 94.32858648 105.02966729 89.77777916 104.19287109 85.22705078 C103.86287109 85.22705078 103.53287109 85.22705078 103.19287109 85.22705078 C103.097556 85.77912201 103.00224091 86.33119324 102.90403748 86.8999939 C99.86772241 104.46747796 96.73602896 122.01724097 93.58956909 139.5652771 C90.50480898 156.73557321 90.50480898 156.73557321 87.53662109 173.92626953 C87.42120468 174.60838501 87.30578827 175.29050049 87.18687439 175.99328613 C86.69186961 178.92557008 86.20348813 181.85870163 85.72631836 184.79394531 C84.9106983 189.67807482 83.97239678 194.51727556 82.81396484 199.33251953 C82.60054443 200.22479248 82.38712402 201.11706543 82.16723633 202.03637695 C80.93152639 204.81463435 79.97006765 205.11511827 77.19287109 206.22705078 C75.15101624 206.50120544 75.15101624 206.50120544 72.96264648 206.53344727 C72.13821548 206.54943466 71.31378448 206.56542206 70.46437073 206.58189392 C69.58200241 206.58725662 68.69963409 206.59261932 67.79052734 206.59814453 C66.87581161 206.607173 65.96109589 206.61620148 65.0186615 206.62550354 C63.08628609 206.63999458 61.15386175 206.64888993 59.22143555 206.65258789 C56.26901574 206.66449575 53.31867881 206.71370107 50.36669922 206.76416016 C48.48715211 206.77362353 46.60759219 206.78085898 44.72802734 206.78564453 C43.84768326 206.80517685 42.96733917 206.82470917 42.06031799 206.84483337 C37.84121735 206.81384852 35.7644707 206.62152908 32.21704102 204.17333984 C29.83937128 200.71251263 28.95914075 197.59174109 28.27099609 193.52783203 C28.1249292 192.76058304 27.9788623 191.99333405 27.82836914 191.20283508 C27.34772 188.65151078 26.89534076 186.09601032 26.44287109 183.53955078 C26.10824312 181.7330948 25.77194295 179.92694787 25.43408203 178.12109375 C24.52125123 173.2093926 23.63462304 168.29332633 22.75585938 163.37542725 C22.17940262 160.15173157 21.59881143 156.92880425 21.01708984 153.70605469 C17.70743167 135.36251325 17.70743167 135.36251325 16.33837891 127.59936523 C14.60077811 117.77795232 12.77409304 107.99415629 10.67861938 98.24255371 C6.90095037 80.61358629 3.81546625 62.83435189 0.56787109 45.10205078 C0.16949692 42.93016417 -0.22894035 40.75828912 -0.62744141 38.58642578 C-2.65113302 27.5532906 -2.65113302 27.5532906 -3.30743408 23.95037842 C-3.6560022 22.05068857 -4.01024887 20.15203568 -4.36883545 18.25421143 C-4.55004944 17.28634705 -4.73126343 16.31848267 -4.91796875 15.32128906 C-5.082435 14.45303497 -5.24690125 13.58478088 -5.41635132 12.69021606 C-5.98576087 9.1010905 -6.07096977 5.8548626 -5.80712891 2.22705078 C-3.80712891 0.22705078 -3.80712891 0.22705078 0 0 Z " fill="#F2792E" transform="translate(99.80712890625,398.77294921875)"/>
<path d="M0 0 C1.2148407 -0.00430527 1.2148407 -0.00430527 2.45422363 -0.00869751 C4.16561584 -0.01073792 5.87703138 -0.00520959 7.58837891 0.00732422 C10.2091889 0.02337893 12.82845677 0.00747556 15.44921875 -0.01171875 C17.11198257 -0.00973631 18.77474544 -0.00589263 20.4375 0 C21.22193481 -0.00607269 22.00636963 -0.01214539 22.8145752 -0.0184021 C28.15753463 0.05072978 28.15753463 0.05072978 30.4223175 1.4539032 C32.4015264 4.42254183 32.15801525 7.44813549 32.15112305 10.89916992 C32.16641052 12.0409948 32.16641052 12.0409948 32.18200684 13.20588684 C32.21220107 15.72196755 32.22141236 18.23766797 32.23046875 20.75390625 C32.24731071 22.49841076 32.2654603 24.24290311 32.28486633 25.98738098 C32.33242505 30.57897132 32.36219633 35.17051233 32.38830566 39.76226807 C32.41808164 44.44773098 32.4646221 49.13302378 32.50976562 53.81835938 C32.59586548 63.01162987 32.66318097 72.20493532 32.71875 81.3984375 C38.25463533 81.42308525 43.790489 81.44127246 49.32641602 81.45336914 C51.2111873 81.45840994 53.09595465 81.46524248 54.98071289 81.47387695 C57.68376636 81.48595367 60.38676831 81.49166818 63.08984375 81.49609375 C64.36171791 81.50383568 64.36171791 81.50383568 65.6592865 81.51173401 C67.67946068 81.51192945 69.69952934 81.46049961 71.71875 81.3984375 C73.65497924 79.46220826 72.88277879 75.79858943 72.89233398 73.15649414 C72.9023645 72.01992622 72.9023645 72.01992622 72.91259766 70.86039734 C72.92667976 69.20980013 72.93856366 67.55918308 72.94854546 65.90855598 C72.9649022 63.29926989 72.98813694 60.69013104 73.01344299 58.08091736 C73.0843705 50.6605457 73.14440606 43.24011387 73.19555664 35.81958008 C73.22728964 31.28610193 73.26855083 26.7527922 73.31575203 22.21945 C73.33180709 20.48786884 73.34411238 18.75624883 73.35265923 17.02461433 C73.36476817 14.60616005 73.38889849 12.18810408 73.41577148 9.76977539 C73.41636063 9.04917938 73.41694977 8.32858337 73.41755676 7.58615112 C73.49085438 2.62633312 73.49085438 2.62633312 75.71875 0.3984375 C78.4083474 0.18641332 80.99238723 0.09446136 83.68359375 0.09765625 C84.47270645 0.09337112 85.26181915 0.089086 86.07484436 0.08467102 C87.74511759 0.07892387 89.41541586 0.07843029 91.08569336 0.08276367 C93.64284972 0.08592095 96.1988464 0.06247999 98.75585938 0.03710938 C100.3776027 0.03483616 101.99934915 0.03413299 103.62109375 0.03515625 C104.38679184 0.0259465 105.15248993 0.01673676 105.94139099 0.00724792 C111.23903442 0.05345927 111.23903442 0.05345927 113.66235352 1.79614258 C116.09182785 5.48106055 115.8698185 8.76032911 115.87265015 13.04621887 C115.87922353 14.2440548 115.87922353 14.2440548 115.8859297 15.46608943 C115.89934372 18.15683864 115.90550237 20.84755508 115.91162109 23.53833008 C115.91951994 25.46152394 115.92778876 27.38471631 115.93640137 29.3079071 C115.96264427 35.63624654 115.9779302 41.96459267 115.9921875 48.29296875 C115.99754605 50.46903678 116.00292355 52.64510477 116.00831985 54.82117271 C116.02995095 63.87054909 116.04868909 72.91992365 116.05994225 81.96931934 C116.07619063 94.95158017 116.10938748 107.93354211 116.16634309 120.91569024 C116.2049994 130.03675242 116.22456977 139.15773452 116.22986281 148.27887648 C116.23352187 153.73022563 116.24560222 159.18125616 116.27796555 164.63251686 C116.30797065 169.76009344 116.314385 174.88715737 116.30258179 180.01480293 C116.30236043 181.89780332 116.31071703 183.78082697 116.32823563 185.66374588 C116.35084081 188.23302045 116.34267365 190.80042245 116.32675171 193.3697052 C116.34757484 194.48975133 116.34757484 194.48975133 116.36881864 195.63242465 C116.30933067 199.52328928 115.82915268 201.25683572 113.40831947 204.36178112 C109.92881208 206.99661208 107.09720633 207.08935166 102.8984375 206.9921875 C101.78772385 206.99224792 101.78772385 206.99224792 100.65457153 206.99230957 C99.09628771 206.98696799 97.53800333 206.96944315 95.97998047 206.94042969 C93.59389183 206.89844 91.2106159 206.89937419 88.82421875 206.90625 C87.30727205 206.8957611 85.79033987 206.8828246 84.2734375 206.8671875 C83.56089813 206.86698608 82.84835876 206.86678467 82.11422729 206.86657715 C77.2831844 206.75086705 77.2831844 206.75086705 75.03437805 205.34672546 C73.01692714 202.3591217 73.27950652 199.29080639 73.28637695 195.8059082 C73.27108948 194.64945297 73.27108948 194.64945297 73.25549316 193.46963501 C73.22529679 190.92108964 73.21608729 188.37291971 73.20703125 185.82421875 C73.19018945 184.05729415 73.17203989 182.29038157 73.15263367 180.52348328 C73.1050732 175.87270869 73.07530305 171.22198282 73.04919434 166.57104492 C73.01418435 160.99088204 72.95715451 155.41090632 72.90380096 149.83089447 C72.82521615 141.35343224 72.77466439 132.87621618 72.71875 124.3984375 C59.51875 124.3984375 46.31875 124.3984375 32.71875 124.3984375 C32.68007813 132.64908203 32.68007813 132.64908203 32.640625 141.06640625 C32.61545592 144.5527809 32.58912271 148.03906886 32.55859375 151.52539062 C32.51025661 157.05802736 32.46621296 162.59046341 32.44775391 168.12329102 C32.43260037 172.5844593 32.39817831 177.04510231 32.35044098 181.50603676 C32.33561367 183.20721176 32.32770821 184.90846175 32.32686615 186.60970116 C32.32449871 188.99451958 32.29743955 191.37788367 32.26464844 193.76245117 C32.27219398 194.8154969 32.27219398 194.8154969 32.27989197 195.88981628 C32.20597264 199.36859963 31.7509178 201.3460169 29.9165802 204.33525085 C26.74595008 207.31164172 23.69087417 207.11771978 19.55859375 207.0625 C18.77231094 207.06728363 17.98602814 207.07206726 17.17591858 207.07699585 C15.51756789 207.08039156 13.85914996 207.07121183 12.20092773 207.05029297 C9.66043371 207.02348165 7.12434255 207.05006469 4.58398438 207.08203125 C2.97134441 207.07872779 1.35870718 207.07232286 -0.25390625 207.0625 C-1.01333023 207.07262115 -1.77275421 207.08274231 -2.55519104 207.09317017 C-4.69946289 207.04541016 -4.69946289 207.04541016 -8.28125 206.3984375 C-11.66458633 202.34987243 -11.70705476 198.35278684 -11.66220093 193.30050659 C-11.6668809 192.4898078 -11.67156087 191.679109 -11.67638266 190.84384358 C-11.68833964 188.12994108 -11.67887281 185.41654288 -11.66943359 182.70263672 C-11.67349892 180.75604966 -11.67884058 178.8094649 -11.68536377 176.86288452 C-11.69904598 171.57796625 -11.69373542 166.29322357 -11.68422651 161.00830221 C-11.6766368 155.48169573 -11.68367341 149.95510438 -11.68838501 144.42849731 C-11.69384365 135.14940691 -11.68664713 125.87038813 -11.67236328 116.59130859 C-11.65602698 105.85473393 -11.66133199 95.11833007 -11.6778425 84.38175952 C-11.6914428 75.16978359 -11.69338445 65.95785916 -11.68552649 56.74587643 C-11.6808432 51.24108715 -11.68024333 45.73637825 -11.69013596 40.23159409 C-11.6987825 35.05890755 -11.69282613 29.88644203 -11.67545319 24.71377945 C-11.67147637 22.81222145 -11.67264271 20.91064495 -11.67924118 19.00909424 C-11.68739945 16.41994286 -11.67720496 13.83150653 -11.66220093 11.24240112 C-11.66889309 10.48414248 -11.67558526 9.72588384 -11.68248022 8.94464767 C-11.6494386 6.0194299 -11.62191962 3.91633275 -9.98803139 1.43245125 C-6.94467072 -0.41129792 -3.45549316 -0.02675066 0 0 Z " fill="#ED7A31" transform="translate(336.28125,398.6015625)"/>
<path d="M0 0 C1.04307312 -0.0112793 2.08614624 -0.02255859 3.16082764 -0.03417969 C4.86906708 -0.0220343 4.86906708 -0.0220343 6.61181641 -0.00964355 C8.41721893 -0.02015747 8.41721893 -0.02015747 10.25909424 -0.03088379 C13.55689482 -0.04547234 16.85369153 -0.0420542 20.15143585 -0.02936745 C23.60357506 -0.01923506 27.05567159 -0.02863377 30.5078125 -0.03491211 C36.30492854 -0.04218787 42.1018407 -0.03260288 47.89892578 -0.0135498 C54.59966305 0.00821905 61.29991349 0.00116761 68.00063896 -0.02085543 C73.75534162 -0.03901166 79.50989778 -0.04156674 85.26461983 -0.03110075 C88.70096948 -0.02486694 92.13709036 -0.02402678 95.57342529 -0.0372467 C99.40412294 -0.05095457 103.23427597 -0.03195176 107.06494141 -0.00964355 C108.77318085 -0.02178894 108.77318085 -0.02178894 110.51593018 -0.03417969 C111.5590033 -0.02290039 112.60207642 -0.01162109 113.67675781 0 C114.58229401 0.0015081 115.4878302 0.0030162 116.42080688 0.00457001 C119.63384705 0.67355961 120.83402441 1.95668018 122.83837891 4.50793457 C123.35595703 7.83605957 123.35595703 7.83605957 123.36962891 11.75793457 C123.37345581 12.45306152 123.37728271 13.14818848 123.38122559 13.86437988 C123.3839407 15.33021498 123.37660726 16.79609885 123.35986328 18.26184082 C123.33844309 20.50122432 123.35967333 22.73740044 123.38525391 24.97668457 C123.38261055 26.40377496 123.37748541 27.83086336 123.36962891 29.25793457 C123.36511719 30.55215332 123.36060547 31.84637207 123.35595703 33.17980957 C122.83837891 36.50793457 122.83837891 36.50793457 121.37731934 38.67785645 C117.61323593 41.39102238 114.23388568 41.11078584 109.69775391 41.11730957 C108.8155719 41.13384583 107.93338989 41.15038208 107.0244751 41.16741943 C104.21237241 41.21592651 101.40081058 41.23727612 98.58837891 41.25793457 C96.67949749 41.28609203 94.7706413 41.31601914 92.86181641 41.34777832 C88.18738176 41.42168611 83.51324785 41.47124412 78.83837891 41.50793457 C78.83506876 42.31669352 78.83175861 43.12545246 78.82834816 43.95871925 C78.74712292 63.63887011 78.65503197 83.31894396 78.55085182 102.9989872 C78.500733 112.51611347 78.45428997 122.03323115 78.41650391 131.55041504 C78.38355973 139.84572239 78.34371505 148.14096301 78.29558885 156.43619668 C78.27034802 160.82832764 78.24855957 165.22041446 78.23503494 169.61259842 C78.2221927 173.74776412 78.20011493 177.88277828 78.17099571 182.01786041 C78.16193686 183.53435247 78.15623365 185.05086892 78.15416527 186.56738663 C78.15083072 188.64113454 78.13532168 190.7144559 78.11685181 192.78811646 C78.10855567 194.52753982 78.10855567 194.52753982 78.10009193 196.30210304 C77.82401482 199.68388623 77.14851369 202.38220298 75.83837891 205.50793457 C72.69486681 207.07969062 69.32594373 206.69194808 65.87353516 206.71105957 C64.6898661 206.71960968 64.6898661 206.71960968 63.48228455 206.72833252 C61.8120152 206.73778382 60.14172719 206.74431702 58.47143555 206.74816895 C55.91438378 206.75788326 53.35813286 206.78890789 50.80126953 206.82043457 C49.17952952 206.82696379 47.55778375 206.83221458 45.93603516 206.83605957 C45.17033707 206.84840637 44.40463898 206.86075317 43.61573792 206.87347412 C38.3609748 206.85138921 38.3609748 206.85138921 36.13703346 205.3897953 C34.21889309 202.61024702 34.45577205 200.39866841 34.44638062 197.04171753 C34.44043935 196.38240789 34.43449809 195.72309825 34.42837679 195.04380953 C34.41204101 192.83034597 34.41703951 190.61744177 34.421875 188.40393066 C34.41449754 186.8189174 34.40579334 185.23390983 34.39585876 183.64891052 C34.37249774 179.34127767 34.36738425 175.03378882 34.36519957 170.72610044 C34.35954834 166.22483177 34.33628254 161.72365761 34.31460571 157.22244263 C34.2760507 148.69558163 34.25185094 140.1687476 34.23348105 131.6418215 C34.20008974 116.35926129 34.14246064 101.07678165 34.07948935 85.79431784 C34.05794119 80.42645729 34.04270392 75.05862485 34.03264976 69.69073081 C34.02565431 66.35940738 34.01477756 63.02810414 34.00300789 59.69679451 C33.9984326 58.14593609 33.99559841 56.59507146 33.99458504 55.04420662 C33.99302394 52.93615708 33.98547336 50.82821289 33.97640991 48.72018433 C33.97385382 47.53773321 33.97129772 46.3552821 33.96866417 45.13699913 C34.13693126 42.58273964 34.13693126 42.58273964 32.83837891 41.50793457 C30.07525872 41.39716573 27.3329162 41.34630259 24.56884766 41.33215332 C22.85854894 41.30895129 21.14826245 41.2848338 19.43798828 41.2598877 C16.73209515 41.22477811 14.02664973 41.1954384 11.32055664 41.18200684 C8.71526325 41.16653173 6.11129195 41.12632035 3.50634766 41.08215332 C2.69892624 41.08406174 1.89150482 41.08597015 1.05961609 41.0879364 C-2.37516536 41.01313666 -4.73635141 40.77625801 -7.67016602 38.9251709 C-9.72406066 35.59637554 -9.67927727 33.15742026 -9.69287109 29.25793457 C-9.696698 28.56280762 -9.7005249 27.86768066 -9.70446777 27.15148926 C-9.70718289 25.68565416 -9.69984945 24.21977029 -9.68310547 22.75402832 C-9.66168528 20.51464482 -9.68291552 18.2784687 -9.70849609 16.03918457 C-9.70585274 14.61209418 -9.70072759 13.18500578 -9.69287109 11.75793457 C-9.68835938 10.46371582 -9.68384766 9.16949707 -9.67919922 7.83605957 C-8.77554069 2.02536471 -5.69552635 0.00948547 0 0 Z " fill="#ED7A31" transform="translate(615.16162109375,398.4920654296875)"/>
<path d="M0 0 C7.08542844 5.27690999 12.42083573 13.32091317 14 22 C10.27919247 23.54187975 6.54723913 25.0547139 2.8125 26.5625 C1.75740234 27.00013672 0.70230469 27.43777344 -0.38476562 27.88867188 C-1.40634766 28.29794922 -2.42792969 28.70722656 -3.48046875 29.12890625 C-4.41785889 29.51119385 -5.35524902 29.89348145 -6.32104492 30.28735352 C-9.2973358 31.07909626 -11.06871005 30.83917182 -14 30 C-14.33 29.01 -14.66 28.02 -15 27 C-16.69769234 25.89831016 -16.69769234 25.89831016 -19 25 C-19.99 24.46375 -20.98 23.9275 -22 23.375 C-27.11530899 21.2206042 -32.56397379 21.29226252 -38 22 C-40.84759689 23.192767 -42.80885571 24.80885571 -45 27 C-45.36997868 30.32980816 -45.5264146 32.26330182 -43.54296875 35.0390625 C-39.96648667 37.7969642 -36.34880426 38.54414404 -32 39.5625 C-31.14784912 39.77519531 -30.29569824 39.98789062 -29.41772461 40.20703125 C-25.78755611 41.10915855 -22.1482663 41.96570824 -18.50390625 42.80859375 C-4.25395449 46.158184 7.59416729 51.23438768 15.625 64.125 C18.37335767 70.18387942 18.5613062 76.0749797 18.625 82.625 C18.63611816 83.59066895 18.64723633 84.55633789 18.65869141 85.55126953 C18.47252614 94.88021779 15.58757427 104.14216627 9 111 C-5.83988725 123.39710745 -23.55532194 124.1658968 -42 123 C-53.3724005 121.47624699 -63.27080784 115.23247874 -70.33984375 106.30859375 C-73.90718583 101.52111728 -76.6700056 97.19755177 -76 91 C-72.8666637 87.8666637 -68.85762783 87.17099512 -64.6875 85.875 C-63.83220703 85.59785156 -62.97691406 85.32070313 -62.09570312 85.03515625 C-61.26361328 84.77347656 -60.43152344 84.51179687 -59.57421875 84.2421875 C-58.81713623 84.0035498 -58.06005371 83.76491211 -57.2800293 83.51904297 C-54.7515013 82.94342989 -52.58481626 82.79960352 -50 83 C-48.19140625 84.64453125 -48.19140625 84.64453125 -46.5625 86.8125 C-42.21865145 92.07720723 -38.50634893 93.95454235 -31.75 94.875 C-26.08887573 95.24622126 -21.11289966 94.53686018 -16 92 C-13.47918335 89.25675835 -13.09514741 87.65243938 -12.5625 84 C-13.14244286 80.02324894 -14.00413529 78.71054426 -17 76 C-22.40626614 73.08728007 -28.26983831 71.63232892 -34.1875 70.125 C-48.09673457 66.50016917 -62.95201778 61.74727488 -71.0390625 48.87109375 C-76.15494555 38.90967919 -76.51943323 26.86053458 -74.4140625 15.96875 C-71.67809577 8.03695655 -65.45136615 0.48191859 -58 -3.4375 C-56.68171902 -3.99533546 -55.34706167 -4.51577898 -54 -5 C-53.23300781 -5.28359375 -52.46601562 -5.5671875 -51.67578125 -5.859375 C-33.89362692 -12.09047701 -15.96502287 -9.63406553 0 0 Z " fill="#EF7A30" transform="translate(914,484)"/>
<path d="M0 0 C1.31742188 0.00410889 2.63484375 0.00821777 3.9921875 0.01245117 C4.6948877 0.01290939 5.39758789 0.01336761 6.12158203 0.01383972 C7.60776456 0.01686168 9.09394394 0.02474633 10.58007812 0.03710938 C12.85818675 0.05534786 15.13588854 0.05761918 17.4140625 0.05737305 C28.57213491 0.09539363 28.57213491 0.09539363 30.8671875 1.24291992 C30.93760848 16.98650097 30.99033635 32.73003874 31.02262402 48.47373867 C31.03802148 55.78560625 31.05897272 63.09737536 31.09350586 70.40917969 C31.12362851 76.79024122 31.14281408 83.17123135 31.14945298 89.55236202 C31.15332708 92.92384496 31.16391067 96.29496365 31.18437767 99.66641045 C31.45756047 146.56820796 31.45756047 146.56820796 16.8671875 163.24291992 C7.23206296 172.36679296 -4.66284184 175.37257055 -17.5703125 175.49291992 C-18.28131104 175.50226563 -18.99230957 175.51161133 -19.72485352 175.52124023 C-24.88678922 175.4889432 -24.88678922 175.4889432 -27.1328125 173.24291992 C-27.35986328 170.53735352 -27.35986328 170.53735352 -27.328125 167.14135742 C-27.32167969 165.92963867 -27.31523438 164.71791992 -27.30859375 163.46948242 C-27.29183594 162.1984668 -27.27507813 160.92745117 -27.2578125 159.61791992 C-27.24427734 157.69979492 -27.24427734 157.69979492 -27.23046875 155.74291992 C-27.20683553 152.57606825 -27.17388879 149.40958568 -27.1328125 146.24291992 C-26.22917969 146.03795898 -25.32554687 145.83299805 -24.39453125 145.62182617 C-23.21503906 145.35241211 -22.03554688 145.08299805 -20.8203125 144.80541992 C-19.64855469 144.53858398 -18.47679687 144.27174805 -17.26953125 143.99682617 C-14.13044279 143.28978023 -14.13044279 143.28978023 -11.1328125 142.24291992 C-9.96596791 139.95464426 -9.96596791 139.95464426 -9.1328125 137.24291992 C-8.85644486 136.4339026 -8.58007723 135.62488527 -8.29533482 134.79135227 C-6.17827979 127.6461178 -5.70174562 121.06830101 -5.73217773 113.64306641 C-5.72519867 112.43522995 -5.7182196 111.22739349 -5.71102905 109.98295593 C-5.69458938 106.70663242 -5.69093213 103.43059626 -5.69256473 100.15424228 C-5.69061159 96.7145112 -5.67022737 93.27489312 -5.65138245 89.83522034 C-5.61061653 81.85810502 -5.5918339 73.88101212 -5.57521057 65.90381622 C-5.55276954 55.71709164 -5.51939599 45.5304302 -5.46801144 35.34380966 C-5.45134958 31.92333776 -5.43938562 28.50297119 -5.43777275 25.08245659 C-5.43505553 21.28096408 -5.42072063 17.4796756 -5.40405273 13.67822266 C-5.40660568 12.54320312 -5.40915863 11.40818359 -5.41178894 10.23876953 C-5.40496094 9.20856186 -5.39813293 8.17835419 -5.39109802 7.1169281 C-5.38946372 6.21864005 -5.38782942 5.320352 -5.38614559 4.3948431 C-4.94862747 0.67837092 -3.57006889 0.27682501 0 0 Z " fill="#EC7A31" transform="translate(794.1328125,477.757080078125)"/>
<path d="M0 0 C4.81249221 5.14824748 6.89126337 10.32456826 7.1875 17.375 C6.89006053 24.46397399 4.60162909 30.12238516 -0.25 35.3125 C-7.11400813 41.05585374 -14.78202669 40.60512718 -23.3125 39.875 C-28.96837053 38.28755399 -33.11040572 33.64344381 -36.3125 28.875 C-39.37853192 22.63829344 -39.46201439 15.12889156 -37.66015625 8.4609375 C-34.84741101 2.20770988 -30.18998831 -1.97400468 -23.875 -4.5 C-14.83916473 -6.08523426 -7.75047328 -4.97200173 0 0 Z " fill="#F1792E" transform="translate(756.3125,565.125)"/>
<path d="M0 0 C0.77730469 -0.02835937 1.55460938 -0.05671875 2.35546875 -0.0859375 C8.21189862 -0.10562298 11.91370871 1.39517992 16.125 5.5 C21.10016438 11.95722362 21.13921556 19.62383955 20.125 27.5 C18.03470615 33.00551243 18.03470615 33.00551243 15.2421875 34.5234375 C9.61873467 35.40516355 4.05947314 35.68753326 -1.625 35.75 C-2.34574707 35.75950684 -3.06649414 35.76901367 -3.80908203 35.77880859 C-8.86503147 35.74726003 -13.3142233 35.1462136 -17.625 32.375 C-20.86257305 27.51864042 -21.39044864 21.16993502 -20.875 15.5 C-18.94745191 9.91011053 -16.50993109 5.54058573 -11.796875 1.890625 C-7.80267608 -0.01035737 -4.3701176 -0.01435178 0 0 Z " fill="#EE7930" transform="translate(806.875,427.5)"/>
<path d="M0 0 C1.08492737 -0.01606293 2.16985474 -0.03212585 3.28765869 -0.04867554 C8.26387038 -0.09297353 13.23994591 -0.13420225 18.21630859 -0.15722656 C20.84302634 -0.17378355 23.46969908 -0.20106972 26.09619141 -0.23925781 C29.87523883 -0.29395768 33.65322744 -0.31589276 37.43261719 -0.33056641 C39.19378876 -0.36457047 39.19378876 -0.36457047 40.99053955 -0.39926147 C49.04896803 -0.37833568 49.04896803 -0.37833568 53.06347656 2.26342773 C55.18698464 5.61958862 56.25123053 8.74797349 57.05761719 12.58740234 C57.22569885 13.3143631 57.39378052 14.04132385 57.56695557 14.79031372 C58.11769313 17.19175332 58.64227553 19.59812407 59.16699219 22.00537109 C59.55273398 23.71024872 59.9401354 25.4147516 60.32910156 27.11889648 C61.34407042 31.58518028 62.33747882 36.05598108 63.32592773 40.52819824 C64.26583893 44.76556328 65.22439231 48.99867931 66.18261719 53.23193359 C67.30640834 58.20232795 68.42779039 63.17321955 69.53881836 68.14648438 C71.94681574 78.92437961 74.41154545 89.68777012 76.91299438 100.44433594 C80.4848294 115.80382299 83.91539308 131.1873627 87.17895508 146.61547852 C88.95033806 154.95555643 90.88249932 163.23526463 92.98217773 171.4987793 C94.27095628 176.59162552 95.48575162 181.69916197 96.66699219 186.81787109 C96.88742187 187.74470703 97.10785156 188.67154297 97.33496094 189.62646484 C100.04292044 201.38338218 100.04292044 201.38338218 97.90039062 204.82666016 C94.79247874 206.96746209 91.49766227 206.62032116 87.85449219 206.59130859 C86.67294556 206.59561386 86.67294556 206.59561386 85.4675293 206.6000061 C83.80321534 206.60204631 82.13887738 206.59651942 80.47460938 206.58398438 C77.92621272 206.56792918 75.37940198 206.58383353 72.83105469 206.60302734 C71.21386368 206.6010449 69.59667367 206.59720121 67.97949219 206.59130859 C67.21693115 206.59738129 66.45437012 206.60345398 65.66870117 206.60971069 C60.44177795 206.54017538 60.44177795 206.54017538 57.99316406 204.91967773 C56.79385691 202.99529037 56.18200656 201.36696269 55.63574219 199.16552734 C55.43335938 198.37210938 55.23097656 197.57869141 55.02246094 196.76123047 C54.82265625 195.93429687 54.62285156 195.10736328 54.41699219 194.25537109 C54.2171875 193.46324219 54.01738281 192.67111328 53.81152344 191.85498047 C53.1700597 189.30342567 52.54384359 186.74805503 51.91699219 184.19287109 C50.92699219 180.23287109 49.93699219 176.27287109 48.91699219 172.19287109 C31.75699219 172.19287109 14.59699219 172.19287109 -3.08300781 172.19287109 C-3.57800781 176.15287109 -3.57800781 176.15287109 -4.08300781 180.19287109 C-4.77441424 183.96569911 -5.61751787 187.70068967 -6.45800781 191.44287109 C-6.66683594 192.42255859 -6.87566406 193.40224609 -7.09082031 194.41162109 C-7.30222656 195.35521484 -7.51363281 196.29880859 -7.73144531 197.27099609 C-7.91884277 198.12081055 -8.10624023 198.970625 -8.29931641 199.84619141 C-9.24192405 202.66872868 -9.83989574 204.1931075 -12.08300781 206.19287109 C-14.97233823 206.58577567 -17.47580938 206.73033064 -20.36425781 206.68896484 C-21.17415161 206.69042007 -21.98404541 206.69187531 -22.81848145 206.69337463 C-24.52990315 206.69171548 -26.24133974 206.68015221 -27.95263672 206.65942383 C-30.57356076 206.63047544 -33.19246157 206.63881192 -35.81347656 206.65185547 C-37.47624682 206.64561778 -39.13901068 206.63722659 -40.80175781 206.62646484 C-41.58619263 206.62940048 -42.37062744 206.63233612 -43.17883301 206.63536072 C-48.52361536 206.54260107 -48.52361536 206.54260107 -51.10620117 204.92797852 C-54.79453165 198.37637524 -49.68277229 186.4554131 -48.04772949 179.54672241 C-47.31419591 176.44567903 -46.59530806 173.34128862 -45.87545776 170.23704529 C-45.49909801 168.61430426 -45.12207789 166.99171626 -44.74441528 165.36927795 C-42.88757486 157.3846039 -41.10346933 149.38456439 -39.33300781 141.38037109 C-39.01220779 139.93349416 -38.69132405 138.48663578 -38.37036133 137.03979492 C-36.79648599 129.94210379 -35.22665685 122.84351991 -33.65820312 115.74462891 C-32.35483916 109.84599413 -31.04918467 103.94786916 -29.74255371 98.04995728 C-29.22974168 95.73306742 -28.71774419 93.41599709 -28.20666504 91.09872437 C-25.33583131 78.08271468 -22.3609952 65.10118895 -19.21669006 52.14845276 C-17.66693147 45.72845277 -16.20694341 39.29749156 -14.85253906 32.83349609 C-14.68657227 32.04283249 -14.52060547 31.25216888 -14.34960938 30.43754578 C-13.69269055 27.29459161 -13.04006647 24.15084694 -12.39770508 21.00488281 C-11.91170308 18.63345873 -11.41424058 16.26467133 -10.91503906 13.89599609 C-10.70401299 12.83835052 -10.70401299 12.83835052 -10.48872375 11.75933838 C-8.96207886 4.59492954 -7.52028227 0.10076809 0 0 Z " fill="#EC7B32" transform="translate(519.0830078125,398.80712890625)"/>
</svg>
