<?xml version="1.0" encoding="UTF-8"?>
<svg version="1.1" xmlns="http://www.w3.org/2000/svg" width="400" height="400" viewBox="0 400 400 200">
<path d="M0 0 C1.63984529 0.00031732 3.27971127 0.01165397 4.91943359 0.03173828 C6.21365738 0.03598312 6.21365738 0.03598312 7.5340271 0.04031372 C10.29544829 0.05152746 13.05654759 0.07663394 15.81787109 0.10205078 C17.68765808 0.11207905 19.55745015 0.12120517 21.42724609 0.12939453 C26.01591218 0.15147066 30.60433702 0.18600844 35.19287109 0.22705078 C37.88111947 6.6321485 39.11472974 12.75711912 40.11083984 19.61376953 C40.45285237 21.85528436 40.79581731 24.09665404 41.13964844 26.33789062 C41.3130072 27.48159119 41.48636597 28.62529175 41.66497803 29.8036499 C42.49539174 35.18890538 43.39959822 40.56120738 44.30615234 45.93408203 C44.66766522 48.08884985 45.02907346 50.24363522 45.39038086 52.3984375 C45.57255157 53.48316345 45.75472229 54.5678894 45.94241333 55.68548584 C50.16516278 80.84434642 54.23491187 106.02527234 58.19287109 131.22705078 C62.99411547 103.86441314 62.99411547 103.86441314 67.25537109 76.41455078 C69.31348276 62.0750277 71.68960315 47.79268616 74.13119507 33.51419067 C74.88587723 29.0875566 75.6015109 24.65668567 76.29052734 20.21923828 C76.61176199 18.242614 76.93334351 16.26604604 77.25537109 14.28955078 C77.38105469 13.42096436 77.50673828 12.55237793 77.63623047 11.6574707 C77.76964844 10.86703369 77.90306641 10.07659668 78.04052734 9.26220703 C78.14373291 8.59584229 78.24693848 7.92947754 78.35327148 7.24291992 C79.71654366 3.96971889 81.37965074 2.38246489 84.19287109 0.22705078 C87.17241896 -0.47888934 90.05593601 -0.45131476 93.10693359 -0.40185547 C93.95838959 -0.40426743 94.80984558 -0.40667938 95.68710327 -0.40916443 C97.4807401 -0.40818772 99.27440772 -0.39483594 101.06787109 -0.36987305 C103.81630337 -0.33546884 106.56153596 -0.34924465 109.31005859 -0.36865234 C111.05486396 -0.36175624 112.79966104 -0.35208598 114.54443359 -0.33935547 C115.36634186 -0.34431534 116.18825012 -0.34927521 117.0350647 -0.35438538 C122.66516732 -0.23775138 122.66516732 -0.23775138 125.1550293 1.95532227 C126.26159763 4.37748606 126.92800883 6.52710311 127.44677734 9.14111328 C127.65641113 10.18340088 127.86604492 11.22568848 128.08203125 12.29956055 C128.3042334 13.47188232 128.52643555 14.6442041 128.75537109 15.85205078 C129.00077637 17.10880615 129.24618164 18.36556152 129.49902344 19.66040039 C132.8057114 36.8128953 135.66705133 54.05336164 138.58959961 71.27441406 C140.84266164 84.5347 143.1918286 97.76546862 145.75990295 110.96841431 C146.74237821 116.09362849 147.65652264 121.23150298 148.57958984 126.36767578 C148.89765625 129.11286747 148.89765625 129.11286747 150.19287109 130.22705078 C150.40266602 128.7506311 150.40266602 128.7506311 150.61669922 127.24438477 C152.3079072 115.34940828 154.00880764 103.45582942 155.71453857 91.56292725 C156.0375304 89.31039204 156.36032005 87.05782784 156.68292236 84.80523682 C163.92969582 34.20908227 163.92969582 34.20908227 167.06787109 14.97705078 C167.35416382 13.18605957 167.35416382 13.18605957 167.64624023 11.35888672 C167.82405029 10.29959961 168.00186035 9.2403125 168.18505859 8.14892578 C168.33313965 7.25786133 168.4812207 6.36679687 168.63378906 5.44873047 C169.19287109 3.22705078 169.19287109 3.22705078 171.19287109 0.22705078 C174.137276 -0.07696921 176.86753233 -0.19285779 179.81396484 -0.17138672 C181.0975161 -0.17569199 181.0975161 -0.17569199 182.40699768 -0.18008423 C184.21852275 -0.18212759 186.03006975 -0.17657873 187.84155273 -0.1640625 C190.61606223 -0.14803189 193.38911063 -0.16389139 196.16357422 -0.18310547 C197.92204098 -0.1811227 199.68050683 -0.17727832 201.43896484 -0.17138672 C202.27028427 -0.17745941 203.1016037 -0.1835321 203.95811462 -0.18978882 C209.75495921 -0.1189765 209.75495921 -0.1189765 211.92401123 1.59495544 C214.35952644 4.7276836 213.10919683 8.57262481 212.7265625 12.3125 C211.72052115 19.69167062 210.31611065 26.98388783 208.88037109 34.28955078 C208.5575259 35.96066288 208.23526522 37.63188799 207.91357422 39.30322266 C206.23260514 48.01224643 204.51627576 56.71435317 202.75 65.40649414 C200.67794034 75.6617821 198.77277448 85.9499213 196.83618164 96.23144531 C195.08492281 105.52677311 193.30913116 114.81673742 191.50537109 124.10205078 C190.04182241 131.65133898 188.66502741 139.20792702 187.38037109 146.78955078 C185.58724173 157.22126018 183.68844209 167.63404222 181.72207642 178.03439331 C181.37115154 179.902829 181.0253694 181.77223839 180.68490601 183.64260864 C180.20164427 186.29081202 179.69948652 188.93479171 179.19287109 191.57861328 C178.98039482 192.77563622 178.98039482 192.77563622 178.7636261 193.99684143 C177.83727406 198.70159865 176.66776404 201.71398152 173.19287109 205.22705078 C170.93133898 206.35781684 169.6686346 206.36478465 167.15795898 206.38818359 C166.32692154 206.39779114 165.49588409 206.40739868 164.6396637 206.41729736 C163.2912162 206.42367218 163.2912162 206.42367218 161.91552734 206.43017578 C160.99323837 206.43587585 160.0709494 206.44157593 159.12071228 206.44744873 C157.16797027 206.45690326 155.21521227 206.46343451 153.26245117 206.46728516 C150.27087713 206.47700042 147.27998721 206.50802333 144.28857422 206.53955078 C142.39339602 206.54607977 140.49821289 206.55133065 138.60302734 206.55517578 C137.2576162 206.57369598 137.2576162 206.57369598 135.88502502 206.59259033 C134.63374062 206.58808868 134.63374062 206.58808868 133.35717773 206.58349609 C132.62374649 206.58714172 131.89031525 206.59078735 131.13465881 206.59454346 C128.62724537 206.12000339 127.76118528 205.20166139 126.19287109 203.22705078 C122.67881494 193.05000647 121.62713192 181.60285094 119.83312988 171.0149231 C117.36198045 156.44547447 114.84010952 141.90213443 111.85229492 127.42871094 C109.9022628 117.95187246 108.2698897 108.42643998 106.65234375 98.88818359 C105.8650812 94.32858648 105.02966729 89.77777916 104.19287109 85.22705078 C103.86287109 85.22705078 103.53287109 85.22705078 103.19287109 85.22705078 C103.097556 85.77912201 103.00224091 86.33119324 102.90403748 86.8999939 C99.86772241 104.46747796 96.73602896 122.01724097 93.58956909 139.5652771 C90.50480898 156.73557321 90.50480898 156.73557321 87.53662109 173.92626953 C87.42120468 174.60838501 87.30578827 175.29050049 87.18687439 175.99328613 C86.69186961 178.92557008 86.20348813 181.85870163 85.72631836 184.79394531 C84.9106983 189.67807482 83.97239678 194.51727556 82.81396484 199.33251953 C82.60054443 200.22479248 82.38712402 201.11706543 82.16723633 202.03637695 C80.93152639 204.81463435 79.97006765 205.11511827 77.19287109 206.22705078 C75.15101624 206.50120544 75.15101624 206.50120544 72.96264648 206.53344727 C72.13821548 206.54943466 71.31378448 206.56542206 70.46437073 206.58189392 C69.58200241 206.58725662 68.69963409 206.59261932 67.79052734 206.59814453 C66.87581161 206.607173 65.96109589 206.61620148 65.0186615 206.62550354 C63.08628609 206.63999458 61.15386175 206.64888993 59.22143555 206.65258789 C56.26901574 206.66449575 53.31867881 206.71370107 50.36669922 206.76416016 C48.48715211 206.77362353 46.60759219 206.78085898 44.72802734 206.78564453 C43.84768326 206.80517685 42.96733917 206.82470917 42.06031799 206.84483337 C37.84121735 206.81384852 35.7644707 206.62152908 32.21704102 204.17333984 C29.83937128 200.71251263 28.95914075 197.59174109 28.27099609 193.52783203 C28.1249292 192.76058304 27.9788623 191.99333405 27.82836914 191.20283508 C27.34772 188.65151078 26.89534076 186.09601032 26.44287109 183.53955078 C26.10824312 181.7330948 25.77194295 179.92694787 25.43408203 178.12109375 C24.52125123 173.2093926 23.63462304 168.29332633 22.75585938 163.37542725 C22.17940262 160.15173157 21.59881143 156.92880425 21.01708984 153.70605469 C17.70743167 135.36251325 17.70743167 135.36251325 16.33837891 127.59936523 C14.60077811 117.77795232 12.77409304 107.99415629 10.67861938 98.24255371 C6.90095037 80.61358629 3.81546625 62.83435189 0.56787109 45.10205078 C0.16949692 42.93016417 -0.22894035 40.75828912 -0.62744141 38.58642578 C-2.65113302 27.5532906 -2.65113302 27.5532906 -3.30743408 23.95037842 C-3.6560022 22.05068857 -4.01024887 20.15203568 -4.36883545 18.25421143 C-4.55004944 17.28634705 -4.73126343 16.31848267 -4.91796875 15.32128906 C-5.082435 14.45303497 -5.24690125 13.58478088 -5.41635132 12.69021606 C-5.98576087 9.1010905 -6.07096977 5.8548626 -5.80712891 2.22705078 C-3.80712891 0.22705078 -3.80712891 0.22705078 0 0 Z " fill="#F2792E" transform="translate(99.80712890625,398.77294921875)"/>
</svg>
